# xmcd
#
# Track frame offsets:
#	150
#	15473
#	28856
#	45914
#	61201
#	78531
#	95106
#	108136
#	122756
#	137202
#	157052
#	171538
#	188041
#	204567
#
# Disc length: 3002 seconds
#
# Revision: 1
# Processed by: cddbd v1.5.2PL0 Copyright (c) Steve Scherf et al.
# Submitted via: audiograbber 1.83.01
#
DISCID=be0bb80e
DTITLE=Marina Koller - Frei
DYEAR=1900
DGENRE=
TTITLE0=Du bist mein Held
TTITLE1=Und dann träumt sie von der Freiheit
TTITLE2=Freitagnacht
TTITLE3=Wir sind wir
TTITLE4=Dieses Wunder des Lebens
TTITLE5=Country Songs und Blues
TTITLE6=Summerparty
TTITLE7=Frei
TTITLE8=Jahrmarkt des Lebens
TTITLE9=Noch immer gute Freunde
TTITLE10=No more Castingshows
TTITLE11=Im Schatten der Nacht
TTITLE12=Aus vorbei
TTITLE13=Am liebsten
EXTD=
EXTT0=
EXTT1=
EXTT2=
EXTT3=
EXTT4=
EXTT5=
EXTT6=
EXTT7=
EXTT8=
EXTT9=
EXTT10=
EXTT11=
EXTT12=
EXTT13=
PLAYORDER=
